<svg xmlns="http://www.w3.org/2000/svg" viewBox="0 0 139.49 139.49"><defs><style>.cls-1{fill:#fff;}</style></defs><g id="Layer_2" data-name="Layer 2"><g id="Layer_1-2" data-name="Layer 1"><path class="cls-1" d="M119.06,20.43a69.73,69.73,0,1,0,20.43,49.31A69.54,69.54,0,0,0,119.06,20.43ZM72.92,76.14a10.18,10.18,0,0,0,15,0c1.13,1.06,2.21,2.1,3.31,3.14-5.51,6.3-16.1,6-21.94.32-4.34,6.25-15.49,5.07-21.06,1l1.79-4,0,0a15.66,15.66,0,0,0,10.31,3A6.73,6.73,0,0,0,64,78.54a2.78,2.78,0,0,0-.18-4.85c-3.13-1.59-6.72-2.1-10-3.21A7.16,7.16,0,0,1,50.17,68c-3.18-4.2-.34-10.35,4.49-11.63a18.21,18.21,0,0,1,6.19-.79c6.61,0,13.22,0,19.84,0a13.77,13.77,0,0,1,10.56,4.6c-1.12,1-2.21,2.07-3.3,3.1a10.35,10.35,0,0,0-14.48-.53A10.2,10.2,0,0,0,72.92,76.14Z"/></g></g></svg>