<svg xmlns="http://www.w3.org/2000/svg" viewBox="0 0 43.01 28.48"><defs><style>.cls-1{fill:#fff;}</style></defs><g id="Layer_2" data-name="Layer 2"><g id="Layer_1-2" data-name="Layer 1"><path class="cls-1" d="M1.79,21.18l0,0a15.61,15.61,0,0,0,10.31,3A6.54,6.54,0,0,0,15.76,23a2.78,2.78,0,0,0-.18-4.84c-3.13-1.59-6.72-2.1-10-3.22a7.11,7.11,0,0,1-3.61-2.53C-1.25,8.22,1.59,2.07,6.43.79A18.18,18.18,0,0,1,12.61,0q9.91,0,19.84,0A13.79,13.79,0,0,1,43,4.62l-3.3,3.1A10.36,10.36,0,0,0,25.23,7.2a10.19,10.19,0,0,0-.55,13.41,10.19,10.19,0,0,0,15,0L43,23.79c-5.52,6.29-16.11,6-21.95.31-4.34,6.25-15.49,5.07-21.06,1"/></g></g></svg>