<svg xmlns="http://www.w3.org/2000/svg" viewBox="0 0 139.49 139.49"><defs><style>.cls-1{fill:#fff;}</style></defs><g id="Layer_2" data-name="Layer 2"><g id="Layer_1-2" data-name="Layer 1"><path class="cls-1" d="M119.06,20.43a69.73,69.73,0,1,0,20.43,49.31A69.54,69.54,0,0,0,119.06,20.43ZM74.5,79.29c5.64,6.62,16.77,6.63,22.49,0l5,4.72c-8.26,9.43-24.12,9-32.88.47-6.49,9.36-23.2,7.59-31.54,1.56l2.69-5.94a.14.14,0,0,1,0-.06,23.36,23.36,0,0,0,15.45,4.45,9.77,9.77,0,0,0,5.44-1.65c2.73-2,2.67-5.54-.26-7.25-4.69-2.38-10.07-3.15-15-4.81A10.72,10.72,0,0,1,40.43,67c-4.78-6.29-.52-15.5,6.73-17.42a27,27,0,0,1,9.25-1.18c9.91,0,19.82,0,29.73,0A20.61,20.61,0,0,1,102,55.34L97,60c-6.23-6.83-16.66-5.77-21.69-.79A15.27,15.27,0,0,0,74.5,79.29Z"/></g></g></svg>