<?xml version="1.0" encoding="utf-8"?>
<svg viewBox="0 0 24 24" xmlns="http://www.w3.org/2000/svg">
  <path d="M 12 0 C 18.623 0 24 5.377 24 12 C 24 18.623 18.623 24 12 24 C 5.377 24 0 18.623 0 12 C 0 5.377 5.377 0 12 0 M 14.557 16 L 9.442 16 C 9.988 18.46 10.883 20.114 12 21.744 C 13.194 20.003 14.041 18.334 14.557 16 M 7.4 16 L 2.833 16 C 4.069 18.825 6.537 20.972 9.588 21.716 C 8.54 19.983 7.805 18.058 7.4 16 M 21.167 16 L 16.6 16 C 16.209 17.988 15.505 19.887 14.425 21.694 C 17.437 20.931 19.942 18.799 21.167 16 M 7.162 10 L 2.2 10 C 1.933 11.313 1.933 12.685 2.2 14 L 7.115 14 C 6.996 12.671 7.014 11.328 7.162 10 M 14.823 10 L 9.176 10 C 9.011 11.326 8.991 12.672 9.123 14 L 14.876 14 C 15.009 12.672 14.987 11.327 14.823 10 M 21.8 10 L 16.837 10 C 16.985 11.328 17.003 12.671 16.885 14 L 21.8 14 C 22.06 12.715 22.073 11.352 21.8 10 M 9.644 2.271 C 6.567 3.003 4.077 5.157 2.833 8 L 7.486 8 C 7.921 5.958 8.664 4.015 9.644 2.271 M 11.999 2.223 C 10.91 3.993 10.089 5.676 9.536 8 L 14.463 8 C 13.929 5.754 13.126 4.052 11.999 2.223 M 14.367 2.292 C 15.38 4.104 16.1 6.052 16.513 8 L 21.167 8 C 19.935 5.184 17.405 3.042 14.367 2.292" style="fill: rgb(255, 255, 255);"/>
</svg>